<svg width="46" height="46" viewBox="0 0 46 46" fill="none" xmlns="http://www.w3.org/2000/svg">
<rect width="46" height="46" fill="#F9F9F9"/>
<path d="M33.5 33.6864C33.5 35.0483 33.263 35.4198 33.2135 35.4846C33.1808 35.493 33.1024 35.5059 32.9517 35.4972C32.6807 35.4816 32.3034 35.4033 31.7791 35.2423C31.261 35.0832 30.6831 34.8706 30.0072 34.6217C29.3455 34.378 28.6061 34.1058 27.8235 33.8549C26.2592 33.3534 24.447 32.9113 22.5 32.9113C20.553 32.9113 18.7408 33.3534 17.1765 33.8549C16.3939 34.1058 15.6545 34.378 14.9928 34.6217C14.3169 34.8706 13.739 35.0832 13.2209 35.2423C12.6966 35.4033 12.3193 35.4816 12.0483 35.4972C11.8976 35.5059 11.8192 35.493 11.7865 35.4846C11.737 35.4198 11.5 35.0484 11.5 33.6864C11.5 27.4873 16.4457 22.5001 22.5 22.5001C28.5543 22.5001 33.5 27.4873 33.5 33.6864ZM33.2323 35.4785C33.2324 35.4785 33.2314 35.479 33.2292 35.4798C33.2312 35.4788 33.2323 35.4784 33.2323 35.4785ZM11.7677 35.4785C11.7677 35.4784 11.7688 35.4788 11.7707 35.4798C11.7686 35.479 11.7676 35.4785 11.7677 35.4785Z" stroke="#3D3D3D" stroke-width="3"/>
<circle cx="23" cy="15.0001" r="4.5" stroke="#3D3D3D" stroke-width="3"/>
</svg>
