<svg width="200" height="247" viewBox="0 0 200 247" fill="none" xmlns="http://www.w3.org/2000/svg">
<rect width="200" height="247" rx="12" fill="#F9F9F9"/>
<path d="M170.5 184.828C170.5 194.93 168.443 199.478 165.507 201.313C164.025 202.239 162.124 202.611 159.704 202.472C157.276 202.332 154.443 201.684 151.205 200.692C147.988 199.707 144.457 198.41 140.612 196.997L140.553 196.976C136.699 195.56 132.549 194.037 128.177 192.639C119.435 189.843 109.731 187.522 99.5 187.522C89.2693 187.522 79.5654 189.843 70.8228 192.639C66.4511 194.037 62.3011 195.56 58.4473 196.976L58.3879 196.997C54.5431 198.41 51.0116 199.707 47.7955 200.692C44.5566 201.684 41.7235 202.332 39.2956 202.472C36.8756 202.611 34.9746 202.239 33.4925 201.313C30.5569 199.478 28.5 194.93 28.5 184.828C28.5 145.101 60.3052 112.929 99.5 112.929C138.695 112.929 170.5 145.101 170.5 184.828Z" stroke="#3D3D3D" stroke-width="3"/>
<path d="M131.7 76.7143C131.7 95.0545 116.795 109.929 98.4001 109.929C80.0055 109.929 65.1001 95.0545 65.1001 76.7143C65.1001 58.374 80.0055 43.5 98.4001 43.5C116.795 43.5 131.7 58.374 131.7 76.7143Z" stroke="#3D3D3D" stroke-width="3"/>
</svg>
